<svg xmlns="http://www.w3.org/2000/svg" xmlns:xlink="http://www.w3.org/1999/xlink" version="1.1" x="0px" y="0px" viewBox="0 0 64 80" style="enable-background:new 0 0 64 64;" xml:space="preserve"><polygon points="17.4,38.1 13.7,31.7 21.1,31.7 "/><path d="M17.4,38.9L13,31.3h8.8L17.4,38.9z M14.3,32.1l3.1,5.3l3.1-5.3H14.3z"/><path d="M37.9,37.4c-0.3,0-0.6-0.1-0.8-0.2l-4.8-3.1c-0.4-0.3-0.7-0.8-0.7-1.3v-8.2c0-0.8,0.7-1.5,1.5-1.5s1.5,0.7,1.5,1.5v7.4  l4.1,2.6c0.7,0.5,0.9,1.4,0.5,2.1C38.9,37.1,38.4,37.4,37.9,37.4z"/><path d="M33.4,49.5c-0.8,0-1.5-0.7-1.5-1.5c0-0.8,0.7-1.5,1.5-1.5c8,0,14.5-6.5,14.5-14.4c0-8-6.5-14.4-14.5-14.4  c-8,0-14.5,6.5-14.5,14.4c0,0.8-0.7,1.5-1.5,1.5s-1.5-0.7-1.5-1.5c0-9.6,7.9-17.5,17.6-17.5S51,22.4,51,32S43.1,49.5,33.4,49.5z"/><ellipse cx="28.6" cy="47.5" rx="1.5" ry="1.5"/><path d="M28.6,49.1c-0.9,0-1.7-0.7-1.7-1.7s0.7-1.7,1.7-1.7s1.7,0.7,1.7,1.7S29.6,49.1,28.6,49.1z M28.6,46.2  c-0.7,0-1.3,0.6-1.3,1.3c0,0.7,0.6,1.3,1.3,1.3c0.7,0,1.3-0.6,1.3-1.3C29.9,46.8,29.4,46.2,28.6,46.2z"/><ellipse cx="23.7" cy="45.2" rx="1.5" ry="1.5"/><path d="M23.7,46.8c-0.9,0-1.7-0.7-1.7-1.7c0-0.9,0.7-1.7,1.7-1.7s1.7,0.7,1.7,1.7C25.3,46.1,24.6,46.8,23.7,46.8z M23.7,43.9  c-0.7,0-1.3,0.6-1.3,1.3c0,0.7,0.6,1.3,1.3,1.3c0.7,0,1.3-0.6,1.3-1.3C25,44.4,24.4,43.9,23.7,43.9z"/><ellipse cx="19.9" cy="41.4" rx="1.5" ry="1.5"/><path d="M19.9,43c-0.9,0-1.7-0.7-1.7-1.7s0.7-1.7,1.7-1.7s1.7,0.7,1.7,1.7S20.8,43,19.9,43z M19.9,40.1c-0.7,0-1.3,0.6-1.3,1.3  c0,0.7,0.6,1.3,1.3,1.3c0.7,0,1.3-0.6,1.3-1.3C21.2,40.7,20.6,40.1,19.9,40.1z"/><text x="0" y="79" fill="#000000" font-size="5px" font-weight="bold" font-family="'Helvetica Neue', Helvetica, Arial-Unicode, Arial, Sans-serif">Created by basith ibrahim</text><text x="0" y="84" fill="#000000" font-size="5px" font-weight="bold" font-family="'Helvetica Neue', Helvetica, Arial-Unicode, Arial, Sans-serif">from the Noun Project</text></svg>