<?xml version="1.0" encoding="iso-8859-1"?>
<!-- Uploaded to: SVG Repo, www.svgrepo.com, Generator: SVG Repo Mixer Tools -->
<svg fill="#000000" height="800px" width="800px" version="1.1" id="Layer_1" xmlns="http://www.w3.org/2000/svg" xmlns:xlink="http://www.w3.org/1999/xlink" 
	 viewBox="0 0 512 512" xml:space="preserve">
<g>
	<g>
		<path d="M500.524,66.363h-127.73c-3.557-23.876-22.481-42.8-46.357-46.357v-9.807C326.437,4.566,321.871,0,316.238,0H195.763
			c-5.633,0-10.199,4.566-10.199,10.199v56.164H11.476c-5.633,0-10.199,4.566-10.199,10.199v425.238
			c0,5.633,4.566,10.199,10.199,10.199h71.979c5.633,0,10.199-4.566,10.199-10.199V191.922h91.909v22.472
			c0,5.633,4.566,10.199,10.199,10.199h50.039v54.133h-33.065c-5.633,0-10.199,4.566-10.199,10.199v35.734
			c0,5.633,4.566,10.199,10.199,10.199c5.633,0,10.199-4.566,10.199-10.199v-25.535h22.866v25.535
			c0,5.633,4.566,10.199,10.199,10.199c5.633,0,10.199-4.566,10.199-10.199v-25.535h22.866v25.535
			c0,5.633,4.566,10.199,10.199,10.199c5.633,0,10.199-4.566,10.199-10.199v-35.734c0-5.633-4.566-10.199-10.199-10.199H266.2
			v-54.133h50.038c5.633,0,10.199-4.566,10.199-10.199v-22.472h91.909v309.878c0,5.633,4.566,10.199,10.199,10.199h71.979
			c5.633,0,10.199-4.566,10.199-10.199V76.562C510.724,70.929,506.157,66.363,500.524,66.363z M21.675,491.602v-12.239h51.58v12.239
			H21.675z M185.564,171.524H83.455c-5.633,0-10.199,4.566-10.199,10.199v277.241H21.675V157.21h163.889V171.524z M185.564,136.811
			H21.675v-20.54h91.537c5.633,0,10.199-4.566,10.199-10.199s-4.566-10.199-10.199-10.199H21.675v-9.111h163.889V136.811z
			 M306.039,204.196H205.962V64.3h100.077V204.196z M306.039,43.901H205.962V20.398h100.077V43.901z M326.437,40.773
			c12.604,3.047,22.542,12.986,25.59,25.59h-25.59V40.773z M490.326,491.602h-51.58v-12.239h51.58V491.602z M490.326,458.964h-51.58
			V181.723c0-5.633-4.566-10.199-10.199-10.199H326.437v-14.315h163.889V458.964z M490.326,136.811H326.437v-50.05h163.889V136.811z
			"/>
	</g>
</g>
<g>
	<g>
		<path d="M256.001,96.993c-18.01,0-32.661,14.651-32.661,32.661s14.651,32.661,32.661,32.661s32.661-14.651,32.661-32.661
			C288.661,111.645,274.01,96.993,256.001,96.993z M256.001,141.917c-6.761,0-12.262-5.501-12.262-12.263
			s5.501-12.263,12.262-12.263c6.761,0,12.263,5.501,12.263,12.263S262.762,141.917,256.001,141.917z"/>
	</g>
</g>
<g>
	<g>
		<path d="M398.416,407.87c0-5.633-4.566-10.199-10.199-10.199H123.784c-5.633,0-10.199,4.566-10.199,10.199v93.931
			c0,5.633,4.566,10.199,10.199,10.199h264.434c5.633,0,10.199-4.566,10.199-10.199V407.87H398.416z M378.019,491.602h-0.001
			H133.983v-40.861h244.035V491.602z M378.019,430.342H133.983v-12.273h244.035V430.342z"/>
	</g>
</g>
<g>
	<g>
		<path d="M150.949,95.872h-6.12c-5.633,0-10.199,4.566-10.199,10.199s4.566,10.199,10.199,10.199h6.12
			c5.633,0,10.199-4.566,10.199-10.199S156.582,95.872,150.949,95.872z"/>
	</g>
</g>
</svg>